<svg xmlns="http://www.w3.org/2000/svg" xmlns:xlink="http://www.w3.org/1999/xlink" version="1.1" x="0px" y="0px" viewBox="26 -26 100 125" style="enable-background:new 26 -26 100 100;" xml:space="preserve">
<path fill="#fff" class="st0" d="M105.5,53.5c-1,3-3,5-5,5h-50c-2,0-4-2-5-5l-10-40c0-2.8,2.2-5,5-5h14.3l18.9-19.3c1-1,2.5-1,3.5,0L96.2,8.5  h14.3c2.8,0,5,2.2,5,5L105.5,53.5z M90.5,45.5c1.1,0,2-0.9,2-2v-8h-4v8C88.5,44.6,89.4,45.5,90.5,45.5z M80.5,45.5c1.1,0,2-0.9,2-2  v-8h-4v8C78.5,44.6,79.4,45.5,80.5,45.5z M68.5,31.5h4v-8c0-1.1-0.9-2-2-2s-2,0.9-2,2V31.5z M78.5,31.5h4v-8c0-1.1-0.9-2-2-2  s-2,0.9-2,2V31.5z M70.5,45.5c1.1,0,2-0.9,2-2v-8h-4v8C68.5,44.6,69.4,45.5,70.5,45.5z M60.5,45.5c1.1,0,2-0.9,2-2v-8h-4v8  C58.5,44.6,59.4,45.5,60.5,45.5z M58.5,23.5v8h4v-8c0-1.1-0.9-2-2-2S58.5,22.4,58.5,23.5z M75.5-5.4L61.8,8.5h27.4L75.5-5.4z   M90.5,21.5c-1.1,0-2,0.9-2,2v8h4v-8C92.5,22.4,91.6,21.5,90.5,21.5z"/></svg>
